<?xml version="1.0" standalone="no"?>
<!DOCTYPE svg PUBLIC "-//W3C//DTD SVG 20010904//EN"
 "http://www.w3.org/TR/2001/REC-SVG-20010904/DTD/svg10.dtd">
<svg version="1.0" xmlns="http://www.w3.org/2000/svg"
 width="1024.000000pt" height="1024.000000pt" viewBox="0 0 1024.000000 1024.000000"
 preserveAspectRatio="xMidYMid meet">

<g transform="translate(0.000000,1024.000000) scale(0.100000,-0.100000)"
fill="#fff" stroke="none">
<path d="M6493 10039 c-433 -42 -847 -250 -1125 -564 -256 -290 -411 -658
-436 -1033 -25 -376 64 -733 258 -1037 84 -132 70 -132 178 0 51 63 95 121 98
128 3 8 -8 37 -25 64 -131 212 -201 465 -201 722 0 285 79 547 238 791 69 106
268 306 372 375 159 105 350 184 537 222 124 25 414 25 533 -1 293 -63 519
-184 721 -385 402 -403 525 -988 319 -1514 -165 -423 -531 -740 -987 -854
-100 -25 -123 -27 -313 -28 -200 0 -283 10 -416 50 -18 6 -39 -14 -129 -115
-59 -66 -106 -123 -104 -125 11 -10 121 -48 208 -70 386 -100 775 -63 1134
107 64 31 111 48 116 42 8 -8 575 -844 646 -951 l27 -43 -45 -67 c-113 -168
-127 -394 -35 -577 16 -32 245 -382 508 -776 518 -777 517 -776 654 -845 186
-93 393 -83 576 31 192 118 281 268 282 474 1 106 -17 191 -58 272 -14 28
-238 369 -497 757 -349 524 -485 720 -528 762 -119 115 -302 174 -464 149 -44
-7 -92 -13 -107 -14 -27 -1 -52 34 -599 845 l-99 146 123 124 c67 68 152 167
189 219 374 530 430 1207 146 1774 -94 187 -192 320 -355 477 -355 343 -850
516 -1340 468z"/>
<path d="M6624 8905 c-291 -18 -539 -35 -550 -39 -11 -3 -34 -20 -49 -36 -25
-26 -30 -40 -33 -98 -3 -57 0 -72 20 -102 13 -19 39 -43 59 -52 33 -17 51 -17
403 7 203 14 371 24 373 21 2 -2 -168 -208 -379 -457 -317 -375 -1167 -1387
-1173 -1397 -1 -1 -22 7 -47 18 -28 12 -79 22 -139 26 -104 7 -180 -7 -278
-51 l-53 -25 -32 28 c-17 15 -243 213 -502 440 l-472 413 20 62 c27 82 28 220
4 302 -56 188 -200 333 -377 380 -109 29 -262 14 -362 -36 -114 -58 -212 -165
-264 -291 -21 -50 -27 -85 -31 -170 -5 -124 14 -204 72 -300 l34 -57 -603
-805 -603 -804 -59 14 c-366 86 -719 -230 -665 -597 52 -356 446 -561 772
-402 177 86 299 284 300 484 0 76 -34 204 -70 262 -18 29 -27 54 -23 61 5 7
280 371 612 808 l604 795 56 -14 c31 -7 75 -13 99 -13 58 0 186 27 244 52 42
18 51 19 67 7 15 -11 716 -653 894 -819 l37 -35 -21 -55 c-30 -77 -36 -206
-14 -290 47 -182 192 -337 363 -390 44 -14 93 -20 156 -20 158 0 261 43 372
154 85 85 128 167 151 285 20 100 9 201 -31 301 -21 52 -24 66 -13 79 72 90
1535 1808 1542 1811 6 3 18 -121 32 -340 25 -379 28 -394 92 -437 25 -17 48
-23 90 -23 68 0 114 25 138 75 16 33 15 67 -16 607 -26 439 -37 581 -49 606
-19 42 -75 80 -127 86 -22 2 -279 -10 -571 -29z"/>
<path d="M250 7708 c-25 -13 -55 -38 -67 -57 l-23 -34 0 -3649 c0 -3223 2
-3652 15 -3678 8 -16 32 -42 52 -57 l36 -28 3932 -3 3932 -2 43 23 c101 53
109 202 13 264 -24 16 -58 19 -273 23 l-245 5 -5 2625 c-5 2509 -6 2627 -23
2653 -10 16 -32 37 -50 47 -31 19 -55 20 -617 20 -563 0 -586 -1 -617 -20 -18
-10 -40 -34 -50 -52 -17 -31 -18 -153 -21 -2660 l-2 -2628 -190 0 -190 0 -2
1662 c-3 1643 -3 1663 -23 1697 -11 19 -33 43 -48 55 -28 21 -37 21 -613 24
-580 2 -586 2 -623 -19 -21 -11 -46 -35 -57 -52 -18 -31 -19 -78 -22 -1699
l-2 -1668 -190 0 -190 0 -2 2159 -3 2160 -21 27 c-11 15 -33 37 -48 48 -27 21
-37 21 -620 21 -659 0 -623 4 -666 -68 -20 -31 -20 -69 -20 -2189 l0 -2158
-195 0 -195 0 0 1128 0 1128 -22 44 c-14 26 -37 53 -58 65 -34 19 -51 20 -610
20 -551 0 -576 -1 -607 -19 -18 -11 -42 -34 -55 -50 l-23 -31 -3 -1138 -2
-1137 -255 0 -255 0 -2 3552 -3 3553 -22 35 c-44 71 -122 94 -193 58z"/>
</g>
</svg>
